<svg width="1347" height="270" viewBox="0 0 1347 270" fill="none" xmlns="http://www.w3.org/2000/svg">
<path d="M176.691 114.114C188.531 130.256 195.525 150.179 195.525 171.737C195.525 225.576 151.912 269.221 98.1113 269.221C44.3111 269.221 0.697282 225.576 0.697266 171.737C0.697266 150.144 7.71393 130.191 19.5889 114.035L97.9658 0L176.691 114.114Z" fill="#E44040"/>
<mask id="path-2-inside-1_18411_79" fill="white">
<path d="M204.437 114.723C205.256 115.858 206.052 117.011 206.823 118.182L206.996 118.432L206.988 118.435C217.004 133.753 222.828 152.064 222.828 171.736C222.828 225.575 179.214 269.22 125.414 269.22C71.6137 269.22 28 225.575 28 171.736C28 150.136 35.0209 130.176 46.9033 114.018L125.269 0L204.437 114.723Z"/>
</mask>
<path d="M204.437 114.723L197.852 119.266L197.9 119.336L197.95 119.404L204.437 114.723ZM206.823 118.182L200.141 122.58L200.191 122.656L200.243 122.731L206.823 118.182ZM206.996 118.432L209.805 125.922L219.411 122.32L213.576 113.882L206.996 118.432ZM206.988 118.435L204.179 110.944L194.826 114.451L200.292 122.812L206.988 118.435ZM222.828 171.736L230.828 171.736L230.828 171.736L222.828 171.736ZM125.414 269.22L125.414 277.22L125.414 277.22L125.414 269.22ZM28 171.736L20 171.736V171.736H28ZM46.9033 114.018L53.3483 118.757L53.4239 118.654L53.4962 118.549L46.9033 114.018ZM125.269 0L131.853 -4.54377L125.255 -14.1045L118.676 -4.53137L125.269 0ZM204.437 114.723L197.95 119.404C198.705 120.451 199.436 121.509 200.141 122.58L206.823 118.182L213.506 113.783C212.669 112.512 211.807 111.265 210.923 110.041L204.437 114.723ZM206.823 118.182L200.243 122.731L200.416 122.981L206.996 118.432L213.576 113.882L213.404 113.632L206.823 118.182ZM206.996 118.432L204.187 110.941L204.179 110.944L206.988 118.435L209.797 125.925L209.805 125.922L206.996 118.432ZM206.988 118.435L200.292 122.812C209.483 136.869 214.828 153.666 214.828 171.736L222.828 171.736L230.828 171.736C230.828 150.462 224.525 130.637 213.684 114.057L206.988 118.435ZM222.828 171.736H214.828C214.828 221.162 174.791 261.22 125.414 261.22L125.414 269.22L125.414 277.22C183.638 277.22 230.828 229.988 230.828 171.736H222.828ZM125.414 269.22V261.22C76.0373 261.22 36 221.162 36 171.736H28H20C20 229.988 67.19 277.22 125.414 277.22V269.22ZM28 171.736L36 171.736C36 151.897 42.4421 133.588 53.3483 118.757L46.9033 114.018L40.4583 109.278C27.5998 126.764 20 148.374 20 171.736L28 171.736ZM46.9033 114.018L53.4962 118.549L131.861 4.53137L125.269 0L118.676 -4.53137L40.3104 109.486L46.9033 114.018ZM125.269 0L118.684 4.54377L197.852 119.266L204.437 114.723L211.021 110.179L131.853 -4.54377L125.269 0Z" fill="black" mask="url(#path-2-inside-1_18411_79)"/>
<path d="M303.609 135.581C300.875 135.581 299.234 133.906 299.234 131.001V93.1299H287.955C285.562 93.1299 283.922 91.6943 283.922 89.4043C283.922 87.1143 285.528 85.6787 287.955 85.6787H319.298C321.725 85.6787 323.331 87.1143 323.331 89.4043C323.331 91.6943 321.69 93.1299 319.298 93.1299H308.019V131.001C308.019 133.906 306.378 135.581 303.609 135.581ZM333.209 135.581C330.475 135.581 328.8 133.906 328.8 131.001V89.6777C328.8 86.7725 330.475 85.0977 333.209 85.0977C335.978 85.0977 337.618 86.7725 337.618 89.6777V106.187H361.612V89.6777C361.612 86.7725 363.253 85.0977 365.987 85.0977C368.756 85.0977 370.396 86.7725 370.396 89.6777V131.001C370.396 133.906 368.756 135.581 365.987 135.581C363.253 135.581 361.612 133.906 361.612 131.001V113.604H337.618V131.001C337.618 133.906 335.978 135.581 333.209 135.581ZM383.521 135C380.787 135 379.112 133.291 379.112 130.42V90.2588C379.112 87.3877 380.787 85.6787 383.521 85.6787H407.55C409.977 85.6787 411.583 87.1143 411.583 89.4043C411.583 91.6943 409.977 93.1299 407.55 93.1299H387.931V106.46H406.524C408.78 106.46 410.318 107.793 410.318 109.946C410.318 112.1 408.814 113.467 406.524 113.467H387.931V127.549H407.55C409.977 127.549 411.583 128.984 411.583 131.274C411.583 133.564 409.977 135 407.55 135H383.521ZM437.115 135.581C434.381 135.581 432.706 133.906 432.706 131.001V90.2588C432.706 87.3877 434.381 85.6787 437.115 85.6787H460.699C463.126 85.6787 464.732 87.1143 464.732 89.4043C464.732 91.6943 463.092 93.1299 460.699 93.1299H441.524V107.69H458.922C461.246 107.69 462.784 109.058 462.784 111.279C462.784 113.501 461.246 114.868 458.922 114.868H441.524V131.001C441.524 133.906 439.884 135.581 437.115 135.581ZM474.986 135.581C472.252 135.581 470.577 133.906 470.577 131.001V89.6777C470.577 86.7725 472.252 85.0977 474.986 85.0977C477.755 85.0977 479.396 86.7725 479.396 89.6777V131.001C479.396 133.906 477.755 135.581 474.986 135.581ZM492.486 135.684C489.752 135.684 488.077 133.975 488.077 131.104V90.2588C488.077 87.3877 489.752 85.6787 492.486 85.6787H507.662C518.326 85.6787 524.718 91.5918 524.718 101.025C524.718 107.451 521.437 112.715 515.729 114.937L523.521 128.608C524.273 129.873 524.479 130.625 524.479 131.65C524.479 133.975 522.564 135.684 520.035 135.684C517.95 135.684 516.925 134.932 515.558 132.505L506.773 116.44H496.896V131.104C496.896 133.975 495.221 135.684 492.486 135.684ZM496.896 109.673H506.842C512.447 109.673 515.694 106.562 515.694 101.23C515.694 96.0352 512.242 92.8223 506.671 92.8223H496.896V109.673ZM549.19 135.82C539.347 135.82 532.784 131.719 530.87 126.113C530.562 125.293 530.392 124.404 530.392 123.584C530.392 121.123 531.964 119.551 534.288 119.551C536.236 119.551 537.467 120.337 538.424 122.319C539.962 126.592 544.2 128.506 549.464 128.506C555.411 128.506 559.581 125.566 559.581 121.465C559.581 117.91 557.12 115.723 550.694 114.39L545.396 113.296C535.519 111.279 530.904 106.631 530.904 99.4189C530.904 90.7373 538.526 84.8584 549.225 84.8584C557.94 84.8584 564.708 88.7549 566.725 95.2832C566.93 95.8301 567.032 96.4795 567.032 97.2998C567.032 99.4531 565.494 100.923 563.204 100.923C561.153 100.923 559.889 100.034 558.966 98.1201C557.291 93.9502 553.771 92.1729 549.156 92.1729C543.688 92.1729 539.791 94.7705 539.791 98.9062C539.791 102.256 542.252 104.409 548.404 105.708L553.702 106.802C564.093 108.955 568.468 113.125 568.468 120.439C568.468 129.873 561.051 135.82 549.19 135.82ZM591.539 135.581C588.805 135.581 587.164 133.906 587.164 131.001V93.1299H575.885C573.492 93.1299 571.852 91.6943 571.852 89.4043C571.852 87.1143 573.458 85.6787 575.885 85.6787H607.228C609.654 85.6787 611.261 87.1143 611.261 89.4043C611.261 91.6943 609.62 93.1299 607.228 93.1299H595.948V131.001C595.948 133.906 594.308 135.581 591.539 135.581ZM635.016 135.581C632.35 135.581 630.743 133.94 630.743 131.138V89.6436C630.743 86.8066 632.486 85.0977 635.323 85.0977C637.271 85.0977 638.468 85.7812 639.903 87.7295L662.872 120.234H663.18V89.541C663.18 86.7383 664.786 85.0977 667.418 85.0977C670.084 85.0977 671.656 86.7383 671.656 89.541V131.172C671.656 133.975 670.05 135.581 667.179 135.581C665.162 135.581 664 134.932 662.599 132.949L639.562 100.41H639.254V131.138C639.254 133.94 637.647 135.581 635.016 135.581ZM682.525 135.581C679.825 135.581 678.082 134.009 678.082 131.514C678.082 130.83 678.253 129.873 678.663 128.813L692.984 89.8828C694.181 86.6016 696.163 85.0977 699.376 85.0977C702.623 85.0977 704.605 86.5332 705.836 89.8486L720.191 128.813C720.602 129.941 720.772 130.728 720.772 131.514C720.772 133.906 718.927 135.581 716.363 135.581C713.971 135.581 712.638 134.487 711.852 131.855L708.604 122.422H690.182L686.935 131.787C686.114 134.453 684.815 135.581 682.525 135.581ZM692.267 115.449H706.451L699.444 94.3945H699.205L692.267 115.449ZM736.871 135.581C734.137 135.581 732.496 133.906 732.496 131.001V93.1299H721.217C718.824 93.1299 717.184 91.6943 717.184 89.4043C717.184 87.1143 718.79 85.6787 721.217 85.6787H752.56C754.986 85.6787 756.593 87.1143 756.593 89.4043C756.593 91.6943 754.952 93.1299 752.56 93.1299H741.28V131.001C741.28 133.906 739.64 135.581 736.871 135.581ZM766.471 135.581C763.736 135.581 762.062 133.906 762.062 131.001V89.6777C762.062 86.7725 763.736 85.0977 766.471 85.0977C769.239 85.0977 770.88 86.7725 770.88 89.6777V131.001C770.88 133.906 769.239 135.581 766.471 135.581ZM801.3 135.82C786.91 135.82 777.887 126.045 777.887 110.356C777.887 94.668 786.91 84.8584 801.3 84.8584C815.655 84.8584 824.679 94.668 824.679 110.356C824.679 126.045 815.655 135.82 801.3 135.82ZM801.3 128.301C810.084 128.301 815.689 121.328 815.689 110.356C815.689 99.3506 810.084 92.3779 801.3 92.3779C792.481 92.3779 786.91 99.3506 786.91 110.356C786.91 121.328 792.481 128.301 801.3 128.301ZM835.992 135.581C833.326 135.581 831.72 133.94 831.72 131.138V89.6436C831.72 86.8066 833.463 85.0977 836.3 85.0977C838.248 85.0977 839.444 85.7812 840.88 87.7295L863.849 120.234H864.156V89.541C864.156 86.7383 865.763 85.0977 868.395 85.0977C871.061 85.0977 872.633 86.7383 872.633 89.541V131.172C872.633 133.975 871.026 135.581 868.155 135.581C866.139 135.581 864.977 134.932 863.575 132.949L840.538 100.41H840.23V131.138C840.23 133.94 838.624 135.581 835.992 135.581ZM883.502 135.581C880.802 135.581 879.059 134.009 879.059 131.514C879.059 130.83 879.229 129.873 879.64 128.813L893.961 89.8828C895.157 86.6016 897.14 85.0977 900.353 85.0977C903.6 85.0977 905.582 86.5332 906.812 89.8486L921.168 128.813C921.578 129.941 921.749 130.728 921.749 131.514C921.749 133.906 919.903 135.581 917.34 135.581C914.947 135.581 913.614 134.487 912.828 131.855L909.581 122.422H891.158L887.911 131.787C887.091 134.453 885.792 135.581 883.502 135.581ZM893.243 115.449H907.428L900.421 94.3945H900.182L893.243 115.449ZM932.584 135C929.85 135 928.175 133.291 928.175 130.42V89.6777C928.175 86.7725 929.85 85.0977 932.584 85.0977C935.353 85.0977 936.993 86.7725 936.993 89.6777V127.549H955.895C958.287 127.549 959.928 128.984 959.928 131.274C959.928 133.564 958.321 135 955.895 135H932.584ZM1001.08 135.82C986.827 135.82 978.043 126.147 978.043 110.322C978.043 94.5996 986.964 84.8584 1000.91 84.8584C1010.04 84.8584 1017.25 89.1309 1020.49 96.3428C1021.04 97.4707 1021.31 98.6328 1021.31 99.6582C1021.31 102.017 1019.78 103.521 1017.42 103.521C1015.4 103.521 1014.07 102.563 1013.11 100.41C1010.82 95.1123 1006.34 92.3438 1000.98 92.3438C992.501 92.3438 987.066 99.3164 987.066 110.322C987.066 121.396 992.467 128.335 1001.01 128.335C1006.65 128.335 1010.99 125.874 1013.25 120.679C1014.14 118.662 1015.26 117.842 1017.18 117.842C1019.61 117.842 1021.28 119.448 1021.28 121.772C1021.28 122.9 1021.01 123.926 1020.46 125.088C1017.32 131.787 1010.31 135.82 1001.08 135.82ZM1050.67 135.82C1036.29 135.82 1027.26 126.045 1027.26 110.356C1027.26 94.668 1036.29 84.8584 1050.67 84.8584C1065.03 84.8584 1074.05 94.668 1074.05 110.356C1074.05 126.045 1065.03 135.82 1050.67 135.82ZM1050.67 128.301C1059.46 128.301 1065.06 121.328 1065.06 110.356C1065.06 99.3506 1059.46 92.3779 1050.67 92.3779C1041.86 92.3779 1036.29 99.3506 1036.29 110.356C1036.29 121.328 1041.86 128.301 1050.67 128.301ZM1085.37 135.581C1082.7 135.581 1081.09 133.94 1081.09 131.138V89.6436C1081.09 86.8066 1082.84 85.0977 1085.67 85.0977C1087.62 85.0977 1088.82 85.7812 1090.25 87.7295L1113.22 120.234H1113.53V89.541C1113.53 86.7383 1115.14 85.0977 1117.77 85.0977C1120.44 85.0977 1122.01 86.7383 1122.01 89.541V131.172C1122.01 133.975 1120.4 135.581 1117.53 135.581C1115.51 135.581 1114.35 134.932 1112.95 132.949L1089.91 100.41H1089.61V131.138C1089.61 133.94 1088 135.581 1085.37 135.581ZM1152.39 135.82C1138 135.82 1129.05 126.045 1129.05 110.151C1129.05 94.4971 1137.97 84.8584 1152.22 84.8584C1161.52 84.8584 1168.94 89.3701 1171.67 95.7275C1172.18 96.8896 1172.32 97.7783 1172.32 98.667C1172.32 100.991 1170.78 102.529 1168.42 102.529C1166.51 102.529 1165.18 101.675 1164.08 99.6924C1161.62 94.8047 1157.62 92.3438 1152.26 92.3438C1143.37 92.3438 1138.07 98.9404 1138.07 110.049C1138.07 121.396 1143.61 128.335 1152.5 128.335C1159.95 128.335 1165.11 123.618 1165.25 116.714L1165.28 115.894H1156.53C1154.34 115.894 1152.84 114.595 1152.84 112.51C1152.84 110.425 1154.34 109.16 1156.53 109.16H1169.52C1172.25 109.16 1173.89 110.869 1173.89 113.74V114.766C1173.89 127.583 1166.03 135.82 1152.39 135.82ZM1185.51 135.684C1182.78 135.684 1181.1 133.975 1181.1 131.104V90.2588C1181.1 87.3877 1182.78 85.6787 1185.51 85.6787H1200.69C1211.35 85.6787 1217.75 91.5918 1217.75 101.025C1217.75 107.451 1214.46 112.715 1208.76 114.937L1216.55 128.608C1217.3 129.873 1217.51 130.625 1217.51 131.65C1217.51 133.975 1215.59 135.684 1213.06 135.684C1210.98 135.684 1209.95 134.932 1208.58 132.505L1199.8 116.44H1189.92V131.104C1189.92 133.975 1188.25 135.684 1185.51 135.684ZM1189.92 109.673H1199.87C1205.47 109.673 1208.72 106.562 1208.72 101.23C1208.72 96.0352 1205.27 92.8223 1199.7 92.8223H1189.92V109.673ZM1229.26 135C1226.53 135 1224.85 133.291 1224.85 130.42V90.2588C1224.85 87.3877 1226.53 85.6787 1229.26 85.6787H1253.29C1255.72 85.6787 1257.33 87.1143 1257.33 89.4043C1257.33 91.6943 1255.72 93.1299 1253.29 93.1299H1233.67V106.46H1252.27C1254.52 106.46 1256.06 107.793 1256.06 109.946C1256.06 112.1 1254.56 113.467 1252.27 113.467H1233.67V127.549H1253.29C1255.72 127.549 1257.33 128.984 1257.33 131.274C1257.33 133.564 1255.72 135 1253.29 135H1229.26ZM1281.8 135.82C1271.95 135.82 1265.39 131.719 1263.48 126.113C1263.17 125.293 1263 124.404 1263 123.584C1263 121.123 1264.57 119.551 1266.9 119.551C1268.84 119.551 1270.07 120.337 1271.03 122.319C1272.57 126.592 1276.81 128.506 1282.07 128.506C1288.02 128.506 1292.19 125.566 1292.19 121.465C1292.19 117.91 1289.73 115.723 1283.3 114.39L1278 113.296C1268.13 111.279 1263.51 106.631 1263.51 99.4189C1263.51 90.7373 1271.13 84.8584 1281.83 84.8584C1290.55 84.8584 1297.32 88.7549 1299.33 95.2832C1299.54 95.8301 1299.64 96.4795 1299.64 97.2998C1299.64 99.4531 1298.1 100.923 1295.81 100.923C1293.76 100.923 1292.5 100.034 1291.57 98.1201C1289.9 93.9502 1286.38 92.1729 1281.76 92.1729C1276.29 92.1729 1272.4 94.7705 1272.4 98.9062C1272.4 102.256 1274.86 104.409 1281.01 105.708L1286.31 106.802C1296.7 108.955 1301.08 113.125 1301.08 120.439C1301.08 129.873 1293.66 135.82 1281.8 135.82ZM1325.07 135.82C1315.23 135.82 1308.66 131.719 1306.75 126.113C1306.44 125.293 1306.27 124.404 1306.27 123.584C1306.27 121.123 1307.84 119.551 1310.17 119.551C1312.12 119.551 1313.35 120.337 1314.3 122.319C1315.84 126.592 1320.08 128.506 1325.34 128.506C1331.29 128.506 1335.46 125.566 1335.46 121.465C1335.46 117.91 1333 115.723 1326.57 114.39L1321.28 113.296C1311.4 111.279 1306.78 106.631 1306.78 99.4189C1306.78 90.7373 1314.41 84.8584 1325.1 84.8584C1333.82 84.8584 1340.59 88.7549 1342.6 95.2832C1342.81 95.8301 1342.91 96.4795 1342.91 97.2998C1342.91 99.4531 1341.37 100.923 1339.08 100.923C1337.03 100.923 1335.77 100.034 1334.84 98.1201C1333.17 93.9502 1329.65 92.1729 1325.04 92.1729C1319.57 92.1729 1315.67 94.7705 1315.67 98.9062C1315.67 102.256 1318.13 104.409 1324.28 105.708L1329.58 106.802C1339.97 108.955 1344.35 113.125 1344.35 120.439C1344.35 129.873 1336.93 135.82 1325.07 135.82ZM308.907 219.82C294.518 219.82 285.494 210.045 285.494 194.356C285.494 178.668 294.518 168.858 308.907 168.858C323.263 168.858 332.286 178.668 332.286 194.356C332.286 210.045 323.263 219.82 308.907 219.82ZM308.907 212.301C317.691 212.301 323.297 205.328 323.297 194.356C323.297 183.351 317.691 176.378 308.907 176.378C300.089 176.378 294.518 183.351 294.518 194.356C294.518 205.328 300.089 212.301 308.907 212.301ZM343.736 219.581C341.002 219.581 339.327 217.906 339.327 215.001V174.259C339.327 171.388 341.002 169.679 343.736 169.679H367.32C369.747 169.679 371.354 171.114 371.354 173.404C371.354 175.694 369.713 177.13 367.32 177.13H348.146V191.69H365.543C367.867 191.69 369.405 193.058 369.405 195.279C369.405 197.501 367.867 198.868 365.543 198.868H348.146V215.001C348.146 217.906 346.505 219.581 343.736 219.581ZM395.621 219C392.887 219 391.212 217.291 391.212 214.42V174.259C391.212 171.388 392.887 169.679 395.621 169.679H411.686C420.641 169.679 426.417 174.498 426.417 181.983C426.417 187.281 422.486 191.896 417.428 192.716V192.989C424.127 193.639 428.81 198.458 428.81 204.986C428.81 213.668 422.418 219 411.891 219H395.621ZM400.03 190.46H408.097C414.249 190.46 417.701 187.862 417.701 183.282C417.701 178.976 414.728 176.549 409.464 176.549H400.03V190.46ZM400.03 212.13H409.874C416.368 212.13 419.82 209.43 419.82 204.371C419.82 199.347 416.266 196.715 409.498 196.715H400.03V212.13ZM439.508 219C436.773 219 435.099 217.291 435.099 214.42V173.678C435.099 170.772 436.773 169.098 439.508 169.098C442.276 169.098 443.917 170.772 443.917 173.678V211.549H462.818C465.211 211.549 466.852 212.984 466.852 215.274C466.852 217.564 465.245 219 462.818 219H439.508ZM492.315 219.82C477.926 219.82 468.902 210.045 468.902 194.356C468.902 178.668 477.926 168.858 492.315 168.858C506.671 168.858 515.694 178.668 515.694 194.356C515.694 210.045 506.671 219.82 492.315 219.82ZM492.315 212.301C501.1 212.301 506.705 205.328 506.705 194.356C506.705 183.351 501.1 176.378 492.315 176.378C483.497 176.378 477.926 183.351 477.926 194.356C477.926 205.328 483.497 212.301 492.315 212.301ZM544.474 219.82C530.084 219.82 521.061 210.045 521.061 194.356C521.061 178.668 530.084 168.858 544.474 168.858C558.829 168.858 567.853 178.668 567.853 194.356C567.853 210.045 558.829 219.82 544.474 219.82ZM544.474 212.301C553.258 212.301 558.863 205.328 558.863 194.356C558.863 183.351 553.258 176.378 544.474 176.378C535.655 176.378 530.084 183.351 530.084 194.356C530.084 205.328 535.655 212.301 544.474 212.301ZM579.303 219C576.568 219 574.894 217.291 574.894 214.42V174.259C574.894 171.388 576.568 169.679 579.303 169.679H592.906C607.638 169.679 616.354 178.6 616.354 194.22C616.354 209.84 607.672 219 592.906 219H579.303ZM583.712 211.549H591.983C601.896 211.549 607.364 205.499 607.364 194.254C607.364 183.214 601.827 177.13 591.983 177.13H583.712V211.549ZM654.737 219.82C644.894 219.82 638.331 215.719 636.417 210.113C636.109 209.293 635.938 208.404 635.938 207.584C635.938 205.123 637.511 203.551 639.835 203.551C641.783 203.551 643.014 204.337 643.971 206.319C645.509 210.592 649.747 212.506 655.011 212.506C660.958 212.506 665.128 209.566 665.128 205.465C665.128 201.91 662.667 199.723 656.241 198.39L650.943 197.296C641.065 195.279 636.451 190.631 636.451 183.419C636.451 174.737 644.073 168.858 654.771 168.858C663.487 168.858 670.255 172.755 672.271 179.283C672.477 179.83 672.579 180.479 672.579 181.3C672.579 183.453 671.041 184.923 668.751 184.923C666.7 184.923 665.436 184.034 664.513 182.12C662.838 177.95 659.317 176.173 654.703 176.173C649.234 176.173 645.338 178.771 645.338 182.906C645.338 186.256 647.799 188.409 653.951 189.708L659.249 190.802C669.64 192.955 674.015 197.125 674.015 204.439C674.015 213.873 666.598 219.82 654.737 219.82ZM685.055 219C682.32 219 680.646 217.291 680.646 214.42V174.259C680.646 171.388 682.32 169.679 685.055 169.679H709.083C711.51 169.679 713.116 171.114 713.116 173.404C713.116 175.694 711.51 177.13 709.083 177.13H689.464V190.46H708.058C710.313 190.46 711.852 191.793 711.852 193.946C711.852 196.1 710.348 197.467 708.058 197.467H689.464V211.549H709.083C711.51 211.549 713.116 212.984 713.116 215.274C713.116 217.564 711.51 219 709.083 219H685.055ZM724.635 219.684C721.9 219.684 720.226 217.975 720.226 215.104V174.259C720.226 171.388 721.9 169.679 724.635 169.679H739.811C750.475 169.679 756.866 175.592 756.866 185.025C756.866 191.451 753.585 196.715 747.877 198.937L755.67 212.608C756.422 213.873 756.627 214.625 756.627 215.65C756.627 217.975 754.713 219.684 752.184 219.684C750.099 219.684 749.073 218.932 747.706 216.505L738.922 200.44H729.044V215.104C729.044 217.975 727.369 219.684 724.635 219.684ZM729.044 193.673H738.99C744.596 193.673 747.843 190.562 747.843 185.23C747.843 180.035 744.391 176.822 738.819 176.822H729.044V193.673ZM782.398 219.581C779.117 219.581 777.237 218.18 775.973 214.762L761.241 175.626C760.899 174.771 760.763 173.951 760.763 173.165C760.763 170.738 762.608 169.098 765.343 169.098C767.633 169.098 769.034 170.123 769.752 172.447L782.433 209.532H782.638L795.284 172.379C796.036 170.055 797.301 169.098 799.591 169.098C802.257 169.098 804.103 170.738 804.103 173.062C804.103 173.849 803.932 174.635 803.624 175.455L788.79 214.796C787.56 218.18 785.68 219.581 782.398 219.581ZM814.322 219.581C811.588 219.581 809.913 217.906 809.913 215.001V173.678C809.913 170.772 811.588 169.098 814.322 169.098C817.091 169.098 818.731 170.772 818.731 173.678V215.001C818.731 217.906 817.091 219.581 814.322 219.581ZM848.775 219.82C834.522 219.82 825.738 210.147 825.738 194.322C825.738 178.6 834.659 168.858 848.604 168.858C857.73 168.858 864.942 173.131 868.189 180.343C868.736 181.471 869.01 182.633 869.01 183.658C869.01 186.017 867.472 187.521 865.113 187.521C863.097 187.521 861.764 186.563 860.807 184.41C858.517 179.112 854.039 176.344 848.673 176.344C840.196 176.344 834.762 183.316 834.762 194.322C834.762 205.396 840.162 212.335 848.707 212.335C854.347 212.335 858.688 209.874 860.943 204.679C861.832 202.662 862.96 201.842 864.874 201.842C867.301 201.842 868.976 203.448 868.976 205.772C868.976 206.9 868.702 207.926 868.155 209.088C865.011 215.787 858.004 219.82 848.775 219.82ZM881.041 219C878.307 219 876.632 217.291 876.632 214.42V174.259C876.632 171.388 878.307 169.679 881.041 169.679H905.069C907.496 169.679 909.103 171.114 909.103 173.404C909.103 175.694 907.496 177.13 905.069 177.13H885.45V190.46H904.044C906.3 190.46 907.838 191.793 907.838 193.946C907.838 196.1 906.334 197.467 904.044 197.467H885.45V211.549H905.069C907.496 211.549 909.103 212.984 909.103 215.274C909.103 217.564 907.496 219 905.069 219H881.041ZM934.498 219.581C931.832 219.581 930.226 217.94 930.226 215.138V173.644C930.226 170.807 931.969 169.098 934.806 169.098C936.754 169.098 937.95 169.781 939.386 171.729L962.354 204.234H962.662V173.541C962.662 170.738 964.269 169.098 966.9 169.098C969.566 169.098 971.139 170.738 971.139 173.541V215.172C971.139 217.975 969.532 219.581 966.661 219.581C964.645 219.581 963.482 218.932 962.081 216.949L939.044 184.41H938.736V215.138C938.736 217.94 937.13 219.581 934.498 219.581ZM1000.12 219.82C987.647 219.82 979.854 212.369 979.854 201.603V173.678C979.854 170.772 981.529 169.098 984.264 169.098C987.032 169.098 988.673 170.772 988.673 173.678V200.816C988.673 207.55 992.809 212.13 1000.12 212.13C1007.44 212.13 1011.61 207.55 1011.61 200.816V173.678C1011.61 170.772 1013.25 169.098 1016.02 169.098C1018.75 169.098 1020.39 170.772 1020.39 173.678V201.603C1020.39 212.369 1012.63 219.82 1000.12 219.82ZM1033.55 219.684C1030.82 219.684 1029.14 217.975 1029.14 215.104V174.259C1029.14 171.388 1030.82 169.679 1033.55 169.679H1048.73C1059.39 169.679 1065.78 175.592 1065.78 185.025C1065.78 191.451 1062.5 196.715 1056.79 198.937L1064.59 212.608C1065.34 213.873 1065.54 214.625 1065.54 215.65C1065.54 217.975 1063.63 219.684 1061.1 219.684C1059.01 219.684 1057.99 218.932 1056.62 216.505L1047.84 200.44H1037.96V215.104C1037.96 217.975 1036.29 219.684 1033.55 219.684ZM1037.96 193.673H1047.91C1053.51 193.673 1056.76 190.562 1056.76 185.23C1056.76 180.035 1053.31 176.822 1047.74 176.822H1037.96V193.673ZM1090.25 219.82C1080.41 219.82 1073.85 215.719 1071.93 210.113C1071.63 209.293 1071.46 208.404 1071.46 207.584C1071.46 205.123 1073.03 203.551 1075.35 203.551C1077.3 203.551 1078.53 204.337 1079.49 206.319C1081.03 210.592 1085.26 212.506 1090.53 212.506C1096.48 212.506 1100.65 209.566 1100.65 205.465C1100.65 201.91 1098.18 199.723 1091.76 198.39L1086.46 197.296C1076.58 195.279 1071.97 190.631 1071.97 183.419C1071.97 174.737 1079.59 168.858 1090.29 168.858C1099 168.858 1105.77 172.755 1107.79 179.283C1107.99 179.83 1108.1 180.479 1108.1 181.3C1108.1 183.453 1106.56 184.923 1104.27 184.923C1102.22 184.923 1100.95 184.034 1100.03 182.12C1098.36 177.95 1094.83 176.173 1090.22 176.173C1084.75 176.173 1080.86 178.771 1080.86 182.906C1080.86 186.256 1083.32 188.409 1089.47 189.708L1094.77 190.802C1105.16 192.955 1109.53 197.125 1109.53 204.439C1109.53 213.873 1102.12 219.82 1090.25 219.82ZM1120.57 219C1117.84 219 1116.16 217.291 1116.16 214.42V174.259C1116.16 171.388 1117.84 169.679 1120.57 169.679H1144.6C1147.03 169.679 1148.63 171.114 1148.63 173.404C1148.63 175.694 1147.03 177.13 1144.6 177.13H1124.98V190.46H1143.58C1145.83 190.46 1147.37 191.793 1147.37 193.946C1147.37 196.1 1145.87 197.467 1143.58 197.467H1124.98V211.549H1144.6C1147.03 211.549 1148.63 212.984 1148.63 215.274C1148.63 217.564 1147.03 219 1144.6 219H1120.57ZM1173.11 219.82C1163.26 219.82 1156.7 215.719 1154.79 210.113C1154.48 209.293 1154.31 208.404 1154.31 207.584C1154.31 205.123 1155.88 203.551 1158.2 203.551C1160.15 203.551 1161.38 204.337 1162.34 206.319C1163.88 210.592 1168.12 212.506 1173.38 212.506C1179.33 212.506 1183.5 209.566 1183.5 205.465C1183.5 201.91 1181.04 199.723 1174.61 198.39L1169.31 197.296C1159.43 195.279 1154.82 190.631 1154.82 183.419C1154.82 174.737 1162.44 168.858 1173.14 168.858C1181.86 168.858 1188.62 172.755 1190.64 179.283C1190.85 179.83 1190.95 180.479 1190.95 181.3C1190.95 183.453 1189.41 184.923 1187.12 184.923C1185.07 184.923 1183.8 184.034 1182.88 182.12C1181.21 177.95 1177.69 176.173 1173.07 176.173C1167.6 176.173 1163.71 178.771 1163.71 182.906C1163.71 186.256 1166.17 188.409 1172.32 189.708L1177.62 190.802C1188.01 192.955 1192.38 197.125 1192.38 204.439C1192.38 213.873 1184.97 219.82 1173.11 219.82Z" fill="black"/>
</svg>
